<svg width="36" height="36" viewBox="0 0 36 36" fill="none" xmlns="http://www.w3.org/2000/svg">
<g clip-path="url(#clip0_1314_813)">
<g clip-path="url(#clip1_1314_813)">
<path d="M11.4127 8.16309C12.3203 8.16309 13.159 8.23199 13.9288 8.43872C14.6966 8.57653 15.3286 8.86397 15.8897 9.20851C16.4508 9.55305 16.8682 10.0472 17.1517 10.6792C17.4273 11.3092 17.577 12.079 17.577 12.9177C17.577 13.8942 17.3683 14.7329 16.8761 15.3629C16.4528 15.9929 15.7618 16.556 14.9132 16.9714C16.1063 17.3179 17.0139 17.9479 17.5671 18.7866C18.1204 19.6253 18.4747 20.6708 18.4747 21.8638C18.4747 22.8404 18.268 23.6791 17.9136 24.38C17.5614 25.0863 17.0307 25.6883 16.3741 26.1263C15.744 26.5496 14.9742 26.8941 14.1355 27.1028C13.3141 27.3203 12.4691 27.4367 11.6194 27.4493L2.25 27.4631V8.16309H11.4127ZM10.8516 15.9949C11.6194 15.9949 12.2494 15.7882 12.7357 15.4338C13.2201 15.0794 13.4347 14.4553 13.4347 13.6875C13.4347 13.2622 13.3658 12.8488 13.2279 12.5712C13.0775 12.2907 12.8613 12.0509 12.5979 11.8723C12.3127 11.7157 12.0073 11.5991 11.6903 11.5258C11.3438 11.4569 10.9894 11.4569 10.574 11.4569H6.52226V16.0047C6.52226 15.9949 10.8516 15.9949 10.8516 15.9949ZM11.0583 24.25C11.4816 24.25 11.897 24.1811 12.2514 24.1122C12.5979 24.0433 12.9523 23.9035 13.2279 23.6869C13.5036 23.4704 13.7201 23.2637 13.9288 22.9191C14.0666 22.5726 14.2045 22.1493 14.2045 21.6571C14.2045 20.6806 13.9288 19.9797 13.3657 19.4875C12.8046 19.0642 12.0349 18.8575 11.1272 18.8575H6.52226V24.2402H11.0603L11.0583 24.25ZM24.5602 24.1811C25.122 24.7416 25.9607 25.0211 27.0764 25.0198C27.8442 25.0198 28.5451 24.8111 29.1081 24.4567C29.6673 24.0367 30.0151 23.6167 30.1516 23.1967H33.5773C33.0142 24.8721 32.1755 26.0652 31.0612 26.835C29.9468 27.5339 28.614 27.9494 27.0055 27.9494C25.9768 27.9556 24.9563 27.7651 23.9991 27.3883C23.1362 27.0698 22.3667 26.5406 21.7606 25.8487C21.1125 25.2051 20.6314 24.413 20.3589 23.5413C20.0143 22.6336 19.8667 21.6571 19.8667 20.533C19.8667 19.4875 20.0045 18.5012 20.3589 17.5936C20.7132 16.6879 21.1976 15.9162 21.8295 15.2172C22.4596 14.5872 23.2294 14.0242 24.0681 13.6776C25.003 13.3045 26.0008 13.114 27.0074 13.1165C28.2005 13.1165 29.246 13.3233 30.1536 13.8155C31.0592 14.3077 31.7621 14.8629 32.3232 15.7016C32.8843 16.4694 33.2997 17.377 33.5852 18.3555C33.723 19.332 33.7919 20.3164 33.723 21.4327H23.5837C23.5837 22.5746 23.9972 23.618 24.5602 24.1811ZM28.9703 16.8336C28.4781 16.3414 27.7064 16.0638 26.7988 16.0638C26.1687 16.0638 25.6844 16.2016 25.2611 16.4103C24.8378 16.619 24.5603 16.9025 24.2846 17.1781C24.0276 17.4486 23.8563 17.789 23.7924 18.1566C23.7215 18.5012 23.6546 18.7866 23.6546 19.0623H29.9468C29.809 18.0267 29.4566 17.3258 28.9703 16.8336ZM22.8139 9.49398H30.6458V11.3781H22.8139V9.49398Z" fill="black"/>
</g>
</g>
<defs>
<clipPath id="clip0_1314_813">
<rect width="36" height="36" fill="white"/>
</clipPath>
<clipPath id="clip1_1314_813">
<rect width="36" height="36" fill="white"/>
</clipPath>
</defs>
</svg>
